TITLE ""
FILE "P1Q_t_0588-0596.mp3" MP3
  TRACK 01 AUDIO
    TITLE "P1Q_t_0588-0596_01"
    INDEX 01 00:00:00
  TRACK 02 AUDIO
    TITLE "P1Q_t_0588-0596_02"
    INDEX 01 00:01:35
  TRACK 03 AUDIO
    TITLE "P1Q_t_0588-0596_03"
    INDEX 01 00:01:57
  TRACK 04 AUDIO
    TITLE "P1Q_t_0588-0596_04"
    INDEX 01 00:05:45
  TRACK 05 AUDIO
    TITLE "P1Q_t_0588-0596_05"
    INDEX 01 00:05:66
  TRACK 06 AUDIO
    TITLE "P1Q_t_0588-0596_06"
    INDEX 01 00:11:16
  TRACK 07 AUDIO
    TITLE "P1Q_t_0588-0596_07"
    INDEX 01 00:11:63
  TRACK 08 AUDIO
    TITLE "P1Q_t_0588-0596_08"
    INDEX 01 00:12:62
  TRACK 09 AUDIO
    TITLE "P1Q_t_0588-0596_09"
    INDEX 01 00:13:11
  TRACK 10 AUDIO
    TITLE "P1Q_t_0588-0596_10"
    INDEX 01 00:16:50
  TRACK 11 AUDIO
    TITLE "P1Q_t_0588-0596_11"
    INDEX 01 00:16:70
  TRACK 12 AUDIO
    TITLE "P1Q_t_0588-0596_12"
    INDEX 01 00:19:72
  TRACK 13 AUDIO
    TITLE "P1Q_t_0588-0596_13"
    INDEX 01 00:20:42
  TRACK 14 AUDIO
    TITLE "P1Q_t_0588-0596_14"
    INDEX 01 00:21:71
  TRACK 15 AUDIO
    TITLE "P1Q_t_0588-0596_15"
    INDEX 01 00:22:18
  TRACK 16 AUDIO
    TITLE "P1Q_t_0588-0596_16"
    INDEX 01 00:25:55
  TRACK 17 AUDIO
    TITLE "P1Q_t_0588-0596_17"
    INDEX 01 00:25:75
  TRACK 18 AUDIO
    TITLE "P1Q_t_0588-0596_18"
    INDEX 01 00:30:15
  TRACK 19 AUDIO
    TITLE "P1Q_t_0588-0596_19"
    INDEX 01 00:30:62
  TRACK 20 AUDIO
    TITLE "P1Q_t_0588-0596_20"
    INDEX 01 00:32:01
  TRACK 21 AUDIO
    TITLE "P1Q_t_0588-0596_21"
    INDEX 01 00:32:22
  TRACK 22 AUDIO
    TITLE "P1Q_t_0588-0596_22"
    INDEX 01 00:35:15
  TRACK 23 AUDIO
    TITLE "P1Q_t_0588-0596_23"
    INDEX 01 00:35:34
  TRACK 24 AUDIO
    TITLE "P1Q_t_0588-0596_24"
    INDEX 01 00:40:02
  TRACK 25 AUDIO
    TITLE "P1Q_t_0588-0596_25"
    INDEX 01 00:40:49
  TRACK 26 AUDIO
    TITLE "P1Q_t_0588-0596_26"
    INDEX 01 00:41:45
  TRACK 27 AUDIO
    TITLE "P1Q_t_0588-0596_27"
    INDEX 01 00:41:68
  TRACK 28 AUDIO
    TITLE "P1Q_t_0588-0596_28"
    INDEX 01 00:46:01
  TRACK 29 AUDIO
    TITLE "P1Q_t_0588-0596_29"
    INDEX 01 00:46:20
  TRACK 30 AUDIO
    TITLE "P1Q_t_0588-0596_30"
    INDEX 01 00:51:23
  TRACK 31 AUDIO
    TITLE "P1Q_t_0588-0596_31"
    INDEX 01 00:51:68
  TRACK 32 AUDIO
    TITLE "P1Q_t_0588-0596_32"
    INDEX 01 00:53:03
  TRACK 33 AUDIO
    TITLE "P1Q_t_0588-0596_33"
    INDEX 01 00:53:46
  TRACK 34 AUDIO
    TITLE "P1Q_t_0588-0596_34"
    INDEX 01 00:54:73
  TRACK 35 AUDIO
    TITLE "P1Q_t_0588-0596_35"
    INDEX 01 00:55:19
  TRACK 36 AUDIO
    TITLE "P1Q_t_0588-0596_36"
    INDEX 01 00:57:65
  TRACK 37 AUDIO
    TITLE "P1Q_t_0588-0596_37"
    INDEX 01 00:58:10
  TRACK 38 AUDIO
    TITLE "P1Q_t_0588-0596_38"
    INDEX 01 01:02:06
  TRACK 39 AUDIO
    TITLE "P1Q_t_0588-0596_39"
    INDEX 01 01:02:51
  TRACK 40 AUDIO
    TITLE "P1Q_t_0588-0596_40"
    INDEX 01 01:03:64
  TRACK 41 AUDIO
    TITLE "P1Q_t_0588-0596_41"
    INDEX 01 01:04:10
  TRACK 42 AUDIO
    TITLE "P1Q_t_0588-0596_42"
    INDEX 01 01:06:44
  TRACK 43 AUDIO
    TITLE "P1Q_t_0588-0596_43"
    INDEX 01 01:06:64
  TRACK 44 AUDIO
    TITLE "P1Q_t_0588-0596_44"
    INDEX 01 01:10:64
  TRACK 45 AUDIO
    TITLE "P1Q_t_0588-0596_45"
    INDEX 01 01:11:34
  TRACK 46 AUDIO
    TITLE "P1Q_t_0588-0596_46"
    INDEX 01 01:12:61
  TRACK 47 AUDIO
    TITLE "P1Q_t_0588-0596_47"
    INDEX 01 01:13:07
  TRACK 48 AUDIO
    TITLE "P1Q_t_0588-0596_48"
    INDEX 01 01:15:53
  TRACK 49 AUDIO
    TITLE "P1Q_t_0588-0596_49"
    INDEX 01 01:15:73
  TRACK 50 AUDIO
    TITLE "P1Q_t_0588-0596_50"
    INDEX 01 01:20:43
  TRACK 51 AUDIO
    TITLE "P1Q_t_0588-0596_51"
    INDEX 01 01:21:13
  TRACK 52 AUDIO
    TITLE "P1Q_t_0588-0596_52"
    INDEX 01 01:22:36
  TRACK 53 AUDIO
    TITLE "P1Q_t_0588-0596_53"
    INDEX 01 01:22:59
  TRACK 54 AUDIO
    TITLE "P1Q_t_0588-0596_54"
    INDEX 01 01:27:31
  TRACK 55 AUDIO
    TITLE "P1Q_t_0588-0596_55"
    INDEX 01 01:27:52
  TRACK 56 AUDIO
    TITLE "P1Q_t_0588-0596_56"
    INDEX 01 01:32:20
